:SAMPLES-PER-SECOND 30
:FRAME-RANGE 1-1700
:FULLY-SPECIFIED
:DEGREES
1116
root  66.3941 38.9486 54.218 -43.6296 -81.1028 45.6522
RightUpLeg  7.47454 1.63226 1.88271
RightLeg  10.796 9.96292 -3.56492
RightFoot  -17.7182 -0.497137 -6.76688
RightToes  -1.16417e-010 0 -3.6325e-017
Spine  10.1857 1.33236 4.43067
Spine1  -4.72104 2.70249 -7.18812
HEad  -7.25099 -20.3905 5.82484
LeftShoulder1  1.02071 0.743353 -30.9057
LeftArm  3.91103 20.5419 -28.9398
LeftForeArm  7.71942 -5.15815 -16.5503
LeftHand  0.453899 0.257182 -10.3702
RightShoulder  8.62126 12.8785 46.0333
RightArm  29.9799 -0.941587 22.8321
RightForeArm  14.5899 37.2674 7.64508
RightHand  0.409471 2.96002 5.46721
LeftUpLeg  -19.1735 12.6612 4.32851
LeftLeg  10.8057 1.80953 -0.85647
LeftFoot  0.0830393 1.10546 -11.032
LeftToes  1.03528e-008 1.55373e-010 -2.26046e-010
1117
root  65.3184 38.8408 54.9671 -60.3018 -82.6911 62.071
RightUpLeg  9.74752 3.45178 0.70469
RightLeg  10.4825 10.5936 -3.66347
RightFoot  -18.908 -0.493235 -5.52159
RightToes  -1.16417e-010 0 -3.6325e-017
Spine  10.2665 1.36308 3.78765
Spine1  -4.31692 2.81532 -7.85907
HEad  -7.0385 -18.708 5.85345
LeftShoulder1  1.02526 0.732651 -30.9273
LeftArm  3.15293 20.702 -28.3025
LeftForeArm  9.20701 -2.71111 -17.2373
LeftHand  0.425851 0.157497 -9.53438
RightShoulder  8.96149 13.56 45.9295
RightArm  29.7676 -0.540765 22.7475
RightForeArm  14.4545 37.6196 7.75624
RightHand  0.406608 2.81184 5.53775
LeftUpLeg  -17.7956 8.99829 5.81846
LeftLeg  3.14578 4.90002 -3.77193
LeftFoot  -1.0813 1.43585 -15.8384
LeftToes  1.03528e-008 1.55373e-010 -2.26046e-010
1118
root  64.1128 38.5881 55.778 -76.4563 -83.5111 77.4344
RightUpLeg  11.9122 7.71097 0.38033
RightLeg  12.3473 8.258 -3.15812
RightFoot  -20.6808 -0.454995 -3.85634
RightToes  -1.16417e-010 0 -3.6325e-017
Spine  10.3246 1.30223 3.35583
Spine1  -3.89295 2.76535 -7.91386
HEad  -6.20931 -17.4717 5.73099
LeftShoulder1  1.0941 0.544688 -30.9062
LeftArm  2.61766 20.3437 -27.7999
LeftForeArm  9.89319 -0.438464 -17.7268
LeftHand  0.388028 0.55999 -9.48336
RightShoulder  9.02339 13.6116 46.1125
RightArm  29.6074 -0.278995 22.6028
RightForeArm  13.6437 35.9105 7.31661
RightHand  0.401298 2.97638 5.34202
LeftUpLeg  -16.8104 8.49506 5.12799
LeftLeg  1.32836 2.53539 -4.59384
LeftFoot  -1.90577 1.3663 -16.3254
LeftToes  1.03528e-008 1.55373e-010 -2.26046e-010
1119
root  62.7905 38.2963 56.5694 -90.4646 -83.8546 90.4654
RightUpLeg  14.2307 16.0407 1.45928
RightLeg  15.4352 1.25424 -1.82662
RightFoot  -22.0136 -0.276527 -1.36547
RightToes  -1.16417e-010 0 -3.6325e-017
Spine  10.1109 1.32463 2.47187
Spine1  -3.3707 2.70195 -7.5901
HEad  -4.20724 -16.6786 5.38272
LeftShoulder1  1.11476 0.480425 -30.8038
LeftArm  3.45634 19.7539 -27.4033
LeftForeArm  9.82206 0.827744 -18.0509
LeftHand  0.341998 0.943391 -9.16354
RightShoulder  8.75568 13.0195 46.3607
RightArm  30.3674 -0.611045 22.144
RightForeArm  11.5473 33.0485 6.66819
RightHand  0.373298 3.26332 4.76769
LeftUpLeg  -16.5725 8.28201 3.70753
LeftLeg  4.69613 -0.645407 -4.61901
LeftFoot  4.91459 1.70558 -12.1167
LeftToes  1.03528e-008 1.55373e-010 -2.26046e-010
1120
root  61.4792 38.0136 57.2584 -104.058 -83.3192 102.925
RightUpLeg  14.9996 19.2217 0.943113
RightLeg  21.2042 -1.02563 -0.652911
RightFoot  -22.6168 0.134601 2.9158
RightToes  -1.16417e-010 0 -3.6325e-017
Spine  10.7277 1.53407 -0.00389975
Spine1  -3.84568 2.42424 -6.51472
HEad  -1.87799 -15.8585 5.22406
LeftShoulder1  1.06584 0.598857 -30.6195
LeftArm  3.77788 19.3417 -27.0456
LeftForeArm  10.1188 1.13566 -18.1246
LeftHand  0.295004 1.20311 -8.47053
RightShoulder  8.3447 11.9832 47.1694
RightArm  33.0238 -0.796377 21.576
RightForeArm  7.31496 28.5084 5.77791
RightHand  0.320532 3.33426 4.02245
LeftUpLeg  -16.9593 12.0221 1.61364
LeftLeg  11.3448 -4.34132 -4.02534
LeftFoot  6.68425 1.45144 -9.39281
LeftToes  1.03528e-008 1.55373e-010 -2.26046e-010
1121
root  60.2703 37.7816 57.8551 -111.111 -81.8753 109.227
RightUpLeg  11.4847 15.0224 -3.28259
RightLeg  32.0518 1.91819 1.05491
RightFoot  -20.1465 0.705004 10.9074
RightToes  -1.16417e-010 0 -3.6325e-017
Spine  11.4886 1.84279 -3.22767
Spine1  -4.25808 2.11548 -5.38015
HEad  -0.685066 -15.3211 5.71883
LeftShoulder1  1.09994 0.546076 -31.1226
LeftArm  5.98165 17.0818 -26.2034
LeftForeArm  8.2244 0.627889 -18.3586
LeftHand  0.28589 1.15266 -8.10784
RightShoulder  8.0075 10.9088 48.6644
RightArm  36.6506 -0.43747 20.9402
RightForeArm  0.810435 21.9604 5.50334
RightHand  0.265843 3.18329 3.36516
LeftUpLeg  -18.0182 19.1585 -1.87997
LeftLeg  18.97 -10.6001 -3.97029
LeftFoot  1.248 1.0478 -9.55263
LeftToes  1.03528e-008 1.55373e-010 -2.26046e-010
1122
root  59.174 37.7874 58.4455 -126.085 -80.4986 123.805
RightUpLeg  5.09115 11.6328 -6.86666
RightLeg  44.2853 2.62594 2.44194
RightFoot  -11.1194 -0.108914 16.8731
RightToes  -1.16417e-010 0 -3.6325e-017
Spine  11.7277 2.30677 -3.12971
Spine1  -3.75865 2.71264 -7.19157
HEad  -0.079714 -14.4801 5.40421
LeftShoulder1  1.16068 0.367717 -30.9458
LeftArm  5.49317 13.9264 -26.3441
LeftForeArm  8.5605 0.760902 -18.3185
LeftHand  0.283555 1.05771 -7.84898
RightShoulder  8.38753 11.3646 49.4103
RightArm  18.0878 -0.608644 19.7125
RightForeArm  14.0782 11.1361 12.9944
RightHand  0.186444 2.86328 2.40463
LeftUpLeg  -16.7438 19.9443 -2.10889
LeftLeg  21.8453 -8.98475 -3.63266
LeftFoot  -1.93635 0.711181 -8.49476
LeftToes  1.03528e-008 1.55373e-010 -2.26046e-010
1123
root  58.1303 37.9552 58.9462 -139.703 -78.6602 137.375
RightUpLeg  -2.84494 10.2473 -8.06711
RightLeg  55.6805 -0.0339993 -0.470212
RightFoot  1.95048 -1.44307 12.4548
RightToes  -1.16417e-010 0 -3.6325e-017
Spine  11.9701 2.51771 -3.28195
Spine1  -3.81974 2.90036 -7.83635
HEad  0.346899 -12.3574 4.21364
LeftShoulder1  1.13361 0.41473 -30.6291
LeftArm  1.76357 12.0234 -26.6391
LeftForeArm  10.8932 -0.219021 -17.6628
LeftHand  0.30385 0.787187 -7.85615
RightShoulder  8.74584 12.0337 49.298
RightArm  8.692 -0.624463 19.1297
RightForeArm  18.0843 2.21142 16.1306
RightHand  0.138969 1.68342 2.13531
LeftUpLeg  -14.6086 21.1008 -1.6741
LeftLeg  22.3214 -7.18661 -3.25517
LeftFoot  -4.27269 0.52182 -8.02584
LeftToes  1.03528e-008 1.55373e-010 -2.26046e-010
1124
root  57.1346 38.133 59.3454 -147.853 -77.3307 145.333
RightUpLeg  -8.97528 7.37079 -8.24164
RightLeg  63.4301 -2.83235 -6.7196
RightFoot  3.42729 -1.25707 9.85856
RightToes  -1.16417e-010 0 -3.6325e-017
Spine  12.5254 2.28385 -4.19834
Spine1  -4.1975 2.30984 -6.84764
HEad  0.681363 -9.83952 3.07637
LeftShoulder1  1.13797 0.39912 -30.5851
LeftArm  1.4882 10.453 -26.7393
LeftForeArm  10.0114 -3.15829 -16.9285
LeftHand  0.309977 0.603671 -7.67409
RightShoulder  8.61709 11.9118 48.9566
RightArm  11.8266 -0.882837 18.7847
RightForeArm  15.8856 -0.795198 17.383
RightHand  0.196837 1.08054 3.43716
LeftUpLeg  -12.041 21.7295 -0.733456
LeftLeg  22.0555 -5.88021 -3.40723
LeftFoot  -6.11716 0.385194 -7.63306
LeftToes  1.03528e-008 1.55373e-010 -2.26046e-010
1125
root  56.1204 38.3925 59.6887 -155.008 -76.5899 152.356
RightUpLeg  -13.9988 3.77739 -7.18435
RightLeg  67.0229 -3.6122 -9.97343
RightFoot  1.55827 -0.903587 8.07418
RightToes  -1.16417e-010 0 -3.6325e-017
Spine  12.7952 1.77666 -4.40917
Spine1  -4.23304 1.60485 -5.69469
HEad  0.741475 -7.71279 2.69086
LeftShoulder1  1.19916 0.21242 -30.3654
LeftArm  2.4195 8.26231 -27.0749
LeftForeArm  8.86831 -5.76576 -16.1278
LeftHand  0.298953 0.404903 -7.07854
RightShoulder  8.22659 11.3419 48.5338
RightArm  15.1171 -1.71545 18.014
RightForeArm  18.8301 -1.66908 17.7098
RightHand  0.366024 2.2456 5.38267
LeftUpLeg  -8.9562 19.5298 0.811439
LeftLeg  20.5398 -2.60365 -3.29479
LeftFoot  -7.31861 0.309693 -7.56343
LeftToes  1.03528e-008 1.55373e-010 -2.26046e-010
1126
root  55.102 38.6197 59.9475 -160.675 -75.777 158.041
RightUpLeg  -18.2483 0.688347 -5.50248
RightLeg  66.6335 -3.74285 -10.0987
RightFoot  0.739073 -0.893732 8.47898
RightToes  -1.16417e-010 0 -3.6325e-017
Spine  12.826 1.24277 -4.97198
Spine1  -4.19482 0.839309 -4.32023
HEad  0.617292 -5.47939 2.66046
LeftShoulder1  1.2256 0.0968544 -29.9013
LeftArm  3.89141 6.00138 -27.483
LeftForeArm  7.18498 -8.41151 -15.0924
LeftHand  0.292093 0.139277 -6.52921
RightShoulder  7.53954 10.3542 47.6472
RightArm  19.6237 -2.77949 17.7542
RightForeArm  20.6281 -0.750141 17.8405
RightHand  0.417047 2.73554 5.74497
LeftUpLeg  -5.96113 16.5292 2.23453
LeftLeg  18.6977 1.31338 -3.57754
LeftFoot  -8.27365 0.256408 -7.71837
LeftToes  1.03528e-008 1.55373e-010 -2.26046e-010
1127
root  54.0702 38.8369 60.1546 -165.472 -75.0454 163.078
RightUpLeg  -21.6442 -2.04581 -3.30227
RightLeg  62.7036 -3.89198 -8.69417
RightFoot  -0.589426 -0.823186 8.68845
RightToes  -1.16417e-010 0 -3.6325e-017
Spine  12.7332 0.564694 -5.27395
Spine1  -4.40095 0.0286604 -2.83239
HEad  0.743003 -3.43445 2.68401
LeftShoulder1  1.2485 -0.0247249 -29.3028
LeftArm  6.20855 3.9266 -27.7292
LeftForeArm  5.23824 -11.2705 -13.6843
LeftHand  0.303358 -0.236217 -6.27725
RightShoulder  6.76466 9.18931 46.6614
RightArm  25.2988 -4.12454 17.659
RightForeArm  18.8244 1.57592 17.8494
RightHand  0.351759 2.49538 4.98088
LeftUpLeg  -3.09762 13.7716 3.2326
LeftLeg  16.3476 4.69891 -3.76847
LeftFoot  -9.01248 0.219674 -8.14485
LeftToes  1.03528e-008 1.55373e-010 -2.26046e-010
1128
root  53.0589 38.9929 60.3164 -168.909 -74.0139 166.91
RightUpLeg  -24.2698 -4.23164 -0.945406
RightLeg  55.9399 -5.42487 -8.97869
RightFoot  -1.73589 -0.713541 8.3367
RightToes  -1.16417e-010 0 -3.6325e-017
Spine  12.6104 -0.0131278 -5.44675
Spine1  -4.79689 -0.571707 -1.61548
HEad  0.919244 -1.47153 2.70491
LeftShoulder1  1.26207 -0.112652 -28.8093
LeftArm  9.98061 2.05129 -27.6264
LeftForeArm  2.06252 -14.6636 -11.5834
LeftHand  0.316901 -0.629861 -6.08111
RightShoulder  6.06394 8.08058 45.8141
RightArm  28.1368 -5.5639 17.2411
RightForeArm  16.983 3.34558 17.6115
RightHand  0.340791 2.73404 4.65815
LeftUpLeg  -0.396847 12.3077 3.62413
LeftLeg  13.7536 7.06304 -3.84477
LeftFoot  -9.37279 0.193445 -7.98611
LeftToes  1.03528e-008 1.55373e-010 -2.26046e-010
1129
root  52.0596 39.1073 60.4425 -171.576 -72.9449 169.843
RightUpLeg  -25.1597 -6.37685 1.35422
RightLeg  45.6384 -7.24251 -8.16139
RightFoot  -2.47596 -0.624401 7.82428
RightToes  -1.16417e-010 0 -3.6325e-017
Spine  12.4381 -0.582471 -5.22071
Spine1  -4.83111 -1.05575 -0.822572
HEad  0.847013 0.182812 2.65266
LeftShoulder1  1.26443 -0.167302 -28.3445
LeftArm  13.4054 0.164177 -27.2922
LeftForeArm  -1.33493 -17.7262 -9.21326
LeftHand  0.323705 -0.933155 -5.8801
RightShoulder  5.48646 7.1391 45.0987
RightArm  28.5841 -6.7397 16.856
RightForeArm  15.2342 4.24695 17.4091
RightHand  0.36164 2.52218 5.10651
LeftUpLeg  2.5475 12.0655 3.71586
LeftLeg  10.8339 8.22817 -3.75049
LeftFoot  -9.5015 0.181961 -7.78287
LeftToes  1.03528e-008 1.55373e-010 -2.26046e-010
